<svg width="13" height="11" viewBox="0 0 13 11" fill="none" xmlns="http://www.w3.org/2000/svg">
<path d="M3.32162 1.38477L3.32215 1.38477C3.7347 1.38447 4.14125 1.4836 4.50738 1.67374C4.8735 1.86388 5.18842 2.13944 5.42547 2.47709C5.56579 2.67696 5.79463 2.796 6.03883 2.79615C6.28304 2.7963 6.51202 2.67755 6.65259 2.47786C7.11898 1.8153 7.88788 1.38477 8.75699 1.38477C10.1772 1.38477 11.3286 2.53616 11.3286 3.95638C11.3286 5.3291 10.5054 6.73422 9.31868 7.9327C8.23581 9.02627 6.95682 9.83849 6.0393 10.2019C5.12178 9.83849 3.8428 9.02627 2.75992 7.9327C1.57317 6.73422 0.75 5.3291 0.75 3.95638C0.75 2.53616 1.90139 1.38477 3.32162 1.38477Z" stroke="#2F2F2F" stroke-width="1.5" stroke-linecap="round" stroke-linejoin="round"/>
</svg>
