<svg width="10" height="11" viewBox="0 0 10 11" fill="none" xmlns="http://www.w3.org/2000/svg">
<path d="M8.30868 10.7905C7.85908 10.7905 7.47691 10.6332 7.16219 10.3184C6.84747 10.0037 6.69011 9.62155 6.69011 9.17195C6.69011 9.109 6.6946 9.04372 6.70359 8.9761C6.71259 8.90884 6.72607 8.84823 6.74406 8.79428L2.9404 6.58222C2.78753 6.7171 2.61668 6.82267 2.42785 6.89892C2.23901 6.97554 2.04119 7.01384 1.83437 7.01384C1.38476 7.01384 1.0026 6.85648 0.687875 6.54176C0.373152 6.22703 0.21579 5.84487 0.21579 5.39526C0.21579 4.94566 0.373152 4.56349 0.687875 4.24877C1.0026 3.93405 1.38476 3.77668 1.83437 3.77668C2.04119 3.77668 2.23901 3.81481 2.42785 3.89106C2.61668 3.96768 2.78753 4.07342 2.9404 4.20831L6.74406 1.99625C6.72607 1.94229 6.71259 1.88169 6.70359 1.81443C6.6946 1.74681 6.69011 1.68152 6.69011 1.61858C6.69011 1.16897 6.84747 0.786809 7.16219 0.472086C7.47691 0.157362 7.85908 0 8.30868 0C8.75829 0 9.14045 0.157362 9.45518 0.472086C9.7699 0.786809 9.92726 1.16897 9.92726 1.61858C9.92726 2.06818 9.7699 2.45035 9.45518 2.76507C9.14045 3.0798 8.75829 3.23716 8.30868 3.23716C8.10187 3.23716 7.90404 3.19885 7.7152 3.12224C7.52637 3.04599 7.35552 2.94042 7.20265 2.80554L3.39899 5.0176C3.41698 5.07155 3.43047 5.13215 3.43946 5.19942C3.44845 5.26704 3.45295 5.33232 3.45295 5.39526C3.45295 5.45821 3.44845 5.52331 3.43946 5.59057C3.43047 5.65819 3.41698 5.71898 3.39899 5.77293L7.20265 7.98499C7.35552 7.85011 7.52637 7.74436 7.7152 7.66775C7.90404 7.5915 8.10187 7.55337 8.30868 7.55337C8.75829 7.55337 9.14045 7.71073 9.45518 8.02545C9.7699 8.34018 9.92726 8.72234 9.92726 9.17195C9.92726 9.62155 9.7699 10.0037 9.45518 10.3184C9.14045 10.6332 8.75829 10.7905 8.30868 10.7905Z" fill="#2F2F2F"/>
</svg>
