<svg width="25" height="24" viewBox="0 0 25 24" fill="none" xmlns="http://www.w3.org/2000/svg">
<path d="M10.5702 0C16.0417 0 20.4743 4.34113 20.4743 9.69477C20.4771 11.4585 19.986 13.1892 19.0543 14.6988L23.8561 19.3992L23.8394 19.4156C24.3519 19.8958 24.6667 20.5774 24.6667 21.3479C24.667 22.8363 23.4556 24.0003 21.9366 24C21.1607 23.9997 20.4668 23.6958 19.9717 23.2014L19.9596 23.2132L15.0052 18.3631C13.629 19.0395 12.1101 19.391 10.5702 19.3895C5.09831 19.3895 0.666672 15.049 0.666672 9.69477C0.666672 4.34113 5.09863 0 10.5702 0ZM10.5101 15.5774C13.93 15.5774 16.7003 12.8647 16.7003 9.51814C16.7003 6.17223 13.93 3.45891 10.5101 3.45891C7.09022 3.45891 4.32055 6.17193 4.32055 9.51814C4.32025 12.8647 7.09022 15.5774 10.5101 15.5774Z" fill="#797676"/>
</svg>
