<svg width="22" height="21" viewBox="0 0 22 21" fill="none" xmlns="http://www.w3.org/2000/svg">
<path d="M21.0613 10.6018C21.0613 16.0516 16.6425 20.474 11.197 20.474C5.75159 20.474 1.33276 16.0516 1.33276 10.6018C1.33276 5.15199 5.75159 0.729614 11.197 0.729614C16.6425 0.729614 21.0613 5.15199 21.0613 10.6018Z" fill="#2560DE"/>
<path d="M21.0613 10.6018C21.0613 16.0516 16.6425 20.474 11.197 20.474C5.75159 20.474 1.33276 16.0516 1.33276 10.6018C1.33276 5.15199 5.75159 0.729614 11.197 0.729614C16.6425 0.729614 21.0613 5.15199 21.0613 10.6018Z" stroke="#FEFEFE" stroke-width="1.01" stroke-miterlimit="10"/>
<path d="M11.1971 6.96115V14.2648" stroke="#FEFEFE" stroke-width="1.01" stroke-miterlimit="10"/>
<path d="M14.8571 10.6018H7.55933" stroke="#FEFEFE" stroke-width="1.01" stroke-miterlimit="10"/>
</svg>
